<svg width="35" height="37" viewBox="0 0 35 37" fill="none" xmlns="http://www.w3.org/2000/svg">
<path d="M9.74173 2.9455L7.2317 0.279636C3.01906 3.69119 0.245737 8.94835 0 14.9139H3.51053C3.77382 9.97368 6.16098 5.64864 9.74173 2.9455ZM31.4895 14.9139H35C34.7367 8.94835 31.9634 3.69119 27.7683 0.279636L25.2758 2.9455C28.8215 5.64864 31.2262 9.97368 31.4895 14.9139ZM28.0316 15.846C28.0316 10.1228 25.153 5.33172 20.1329 4.06404V2.79636C20.1329 1.24904 18.9569 0 17.5 0C16.0431 0 14.8671 1.24904 14.8671 2.79636V4.06404C9.82949 5.33172 6.96841 10.1042 6.96841 15.846V25.1672L3.45787 28.8957V30.7599H31.5421V28.8957L28.0316 25.1672V15.846ZM17.5 36.3527C17.7457 36.3527 17.9739 36.334 18.2021 36.2781C19.343 36.0171 20.2733 35.1968 20.7297 34.0783C20.9052 33.6309 20.993 33.1462 20.993 32.6242H13.9719C13.9895 34.6748 15.5517 36.3527 17.5 36.3527Z" fill="#F8F0FF"/>
</svg>
