<svg width="35" height="35" viewBox="0 0 35 35" fill="none" xmlns="http://www.w3.org/2000/svg">
<path d="M30.0364 27.45C30.7364 26.2833 31.15 24.9333 31.15 23.4667C31.15 19.3167 27.9523 15.9667 23.9909 15.9667C20.0295 15.9667 16.8318 19.3167 16.8318 23.4667C16.8318 27.6167 20.0295 30.9667 23.975 30.9667C25.375 30.9667 26.6795 30.5333 27.7773 29.8L32.7409 35L35 32.6333L30.0364 27.45ZM23.9909 27.6333C21.7955 27.6333 20.0136 25.7667 20.0136 23.4667C20.0136 21.1667 21.7955 19.3 23.9909 19.3C26.1864 19.3 27.9682 21.1667 27.9682 23.4667C27.9682 25.7667 26.1864 27.6333 23.9909 27.6333ZM23.4182 13.4667C22.2409 13.5 21.1114 13.7667 20.0773 14.2167L19.2023 12.8333L13.1568 23.1333L8.36818 17.2667L2.59318 26.95L0 25L7.95455 11.6667L12.7273 17.5L19.0909 6.66667L23.4182 13.4667ZM27.5386 14.3C26.5205 13.8333 25.4227 13.55 24.2773 13.4833L32.4227 0L35 1.96667L27.5386 14.3Z" fill="#F8F0FF"/>
</svg>
