<svg width="35" height="35" viewBox="0 0 35 35" fill="none" xmlns="http://www.w3.org/2000/svg">
<path d="M15.9091 4.77273V1.59091C15.9091 0.715909 16.625 0 17.5 0C18.375 0 19.0909 0.715909 19.0909 1.59091V4.77273C19.0909 5.64773 18.375 6.36364 17.5 6.36364C16.625 6.36364 15.9091 5.64773 15.9091 4.77273ZM27.6182 9.625L29.8614 7.36591C30.4818 6.74545 30.4818 5.74318 29.8614 5.12273C29.2409 4.50227 28.2386 4.50227 27.6182 5.12273L25.375 7.38182C24.7545 8.00227 24.7545 9.00455 25.375 9.625C25.9955 10.2455 26.9977 10.2455 27.6182 9.625ZM33.4091 15.9091H30.2273C29.3523 15.9091 28.6364 16.625 28.6364 17.5C28.6364 18.375 29.3523 19.0909 30.2273 19.0909H33.4091C34.2841 19.0909 35 18.375 35 17.5C35 16.625 34.2841 15.9091 33.4091 15.9091ZM17.5 28.6364C16.625 28.6364 15.9091 29.3523 15.9091 30.2273V33.4091C15.9091 34.2841 16.625 35 17.5 35C18.375 35 19.0909 34.2841 19.0909 33.4091V30.2273C19.0909 29.3523 18.375 28.6364 17.5 28.6364ZM7.38182 9.625L5.12273 7.38182C4.50227 6.76136 4.50227 5.74318 5.12273 5.13864C5.74318 4.53409 6.76136 4.51818 7.36591 5.13864L9.60909 7.38182C10.2295 8.00227 10.2295 9.02046 9.60909 9.625C8.98864 10.2295 7.98636 10.2455 7.38182 9.625ZM25.375 25.375C24.7545 25.9955 24.7545 27.0136 25.375 27.6182L27.6182 29.8614C28.2386 30.4818 29.2568 30.4818 29.8614 29.8614C30.4818 29.2409 30.4818 28.2227 29.8614 27.6182L27.6182 25.375C27.0136 24.7545 25.9955 24.7545 25.375 25.375ZM1.59091 19.0909H4.77273C5.64773 19.0909 6.36364 18.375 6.36364 17.5C6.36364 16.625 5.64773 15.9091 4.77273 15.9091H1.59091C0.715909 15.9091 0 16.625 0 17.5C0 18.375 0.715909 19.0909 1.59091 19.0909ZM7.38182 29.8773L9.625 27.6341C10.2455 27.0136 10.2455 25.9955 9.625 25.3909C9.00455 24.7864 7.98636 24.7705 7.38182 25.3909L5.13864 27.6341C4.51818 28.2545 4.51818 29.2727 5.13864 29.8773C5.74318 30.4977 6.76136 30.4977 7.38182 29.8773ZM17.5 7.95455C12.2341 7.95455 7.95455 12.2341 7.95455 17.5C7.95455 22.7659 12.2341 27.0455 17.5 27.0455C22.7659 27.0455 27.0455 22.7659 27.0455 17.5C27.0455 12.2341 22.7659 7.95455 17.5 7.95455Z" fill="#F8F0FF"/>
</svg>
