<?xml version="1.0" standalone="no"?>
<!DOCTYPE svg PUBLIC "-//W3C//DTD SVG 20010904//EN"
 "http://www.w3.org/TR/2001/REC-SVG-20010904/DTD/svg10.dtd">
<svg version="1.0" xmlns="http://www.w3.org/2000/svg"
 width="700.000000pt" height="700.000000pt" viewBox="0 0 700.000000 700.000000"
 preserveAspectRatio="xMidYMid meet">
<metadata>
Created by potrace 1.14, written by Peter Selinger 2001-2017
</metadata>
<g transform="translate(0.000000,700.000000) scale(0.100000,-0.100000)"
fill="#000000" stroke="none">
<path d="M3434 6111 c-47 -22 -80 -59 -95 -110 -7 -23 -9 -163 -7 -401 3 -344
4 -367 23 -399 38 -65 110 -97 182 -81 46 11 83 38 108 81 19 32 20 55 23 399
3 381 1 414 -40 465 -24 31 -91 65 -128 65 -14 0 -43 -9 -66 -19z"/>
<path d="M5175 5391 c-26 -12 -133 -112 -302 -282 -219 -222 -263 -271 -274
-306 -34 -118 86 -238 204 -204 35 11 84 55 310 279 285 284 307 313 293 385
-10 52 -46 99 -96 125 -54 27 -82 27 -135 3z"/>
<path d="M1678 5380 c-65 -35 -98 -116 -78 -191 10 -38 47 -79 259 -293 135
-137 266 -262 290 -277 130 -84 291 33 251 183 -10 37 -46 78 -268 301 -142
142 -274 267 -294 278 -47 24 -112 24 -160 -1z"/>
<path d="M3345 4670 c-259 -37 -490 -152 -676 -339 -160 -160 -261 -339 -317
-560 -23 -93 -26 -126 -26 -271 0 -139 4 -180 24 -260 57 -235 149 -399 320
-570 171 -171 335 -263 570 -320 137 -34 383 -34 520 0 227 55 396 149 561
310 250 245 376 567 355 908 -18 299 -130 546 -346 762 -172 171 -339 265
-570 320 -106 24 -313 35 -415 20z"/>
<path d="M974 3651 c-48 -22 -80 -59 -96 -112 -21 -73 21 -156 96 -190 38 -17
72 -19 406 -19 360 0 366 0 410 23 51 26 78 59 90 110 17 77 -17 147 -90 185
-44 22 -50 22 -410 22 -334 0 -368 -2 -406 -19z"/>
<path d="M5210 3648 c-51 -27 -78 -60 -90 -111 -17 -77 17 -147 90 -184 44
-23 50 -23 410 -23 334 0 368 2 406 19 75 34 117 117 96 190 -16 53 -48 90
-96 112 -38 17 -72 19 -406 19 -360 0 -366 0 -410 -22z"/>
<path d="M2175 2391 c-26 -12 -133 -112 -302 -282 -219 -222 -263 -271 -274
-306 -34 -118 86 -238 204 -204 35 11 84 55 310 279 285 284 307 313 293 385
-10 52 -46 99 -96 125 -54 27 -82 27 -135 3z"/>
<path d="M4690 2388 c-50 -26 -86 -73 -96 -125 -14 -72 8 -101 293 -385 226
-224 275 -268 311 -279 117 -34 237 86 203 204 -11 35 -55 84 -274 306 -314
315 -336 330 -437 279z"/>
<path d="M3461 1880 c-44 -10 -81 -39 -106 -81 -19 -32 -20 -55 -23 -404 -3
-409 -1 -429 59 -479 88 -75 212 -47 260 58 17 38 19 72 18 401 0 377 -3 410
-46 457 -37 41 -103 61 -162 48z"/>
</g>
</svg>
