<?xml version="1.0" standalone="no"?>
<!DOCTYPE svg PUBLIC "-//W3C//DTD SVG 20010904//EN"
 "http://www.w3.org/TR/2001/REC-SVG-20010904/DTD/svg10.dtd">
<svg version="1.0" xmlns="http://www.w3.org/2000/svg"
 width="240.000000pt" height="240.000000pt" viewBox="0 0 240.000000 240.000000"
 preserveAspectRatio="xMidYMid meet">
<metadata>
Created by potrace 1.14, written by Peter Selinger 2001-2017
</metadata>
<g transform="translate(0.000000,240.000000) scale(0.100000,-0.100000)"
fill="#000000" stroke="none">
<path d="M1124 2355 l-33 -36 2 -150 2 -151 33 -29 c58 -52 141 -33 171 40 9
19 12 74 9 166 l-3 137 -33 29 c-48 43 -103 41 -148 -6z"/>
<path d="M410 2069 c-19 -4 -45 -19 -57 -34 -22 -25 -25 -34 -25 -75 0 -11 0
-25 1 -31 2 -20 185 -201 217 -215 37 -16 92 -4 118 25 27 30 36 85 19 118
-19 36 -194 208 -219 214 -10 3 -35 2 -54 -2z"/>
<path d="M1934 2068 c-36 -9 -223 -196 -225 -225 -6 -70 10 -102 64 -129 51
-27 92 -6 198 105 53 54 98 110 101 123 15 81 -58 148 -138 126z"/>
<path d="M1065 1835 c-84 -18 -140 -42 -215 -91 -80 -52 -115 -84 -164 -148
-94 -123 -136 -254 -131 -408 1 -57 5 -113 9 -125 3 -13 8 -31 10 -40 18 -79
96 -211 167 -282 214 -216 567 -251 818 -82 119 80 214 207 260 348 26 79 29
100 27 203 -2 95 -7 128 -30 194 -72 210 -246 372 -457 426 -66 17 -226 20
-294 5z"/>
<path d="M74 1301 c-67 -29 -84 -118 -35 -173 l29 -33 150 -3 149 -3 37 34
c48 46 51 100 7 149 l-29 33 -144 2 c-79 2 -153 -1 -164 -6z"/>
<path d="M2013 1291 c-39 -24 -53 -49 -53 -93 0 -40 21 -73 60 -93 41 -21 269
-21 310 0 67 34 81 111 31 167 l-29 33 -144 3 c-128 2 -146 1 -175 -17z"/>
<path d="M562 692 c-32 -5 -208 -179 -225 -222 -33 -83 40 -162 128 -139 35
10 224 196 226 223 1 9 2 22 3 29 3 21 -14 64 -33 81 -22 20 -68 33 -99 28z"/>
<path d="M1788 693 c-28 -4 -77 -53 -79 -79 -1 -8 -2 -20 -3 -26 -5 -33 22
-71 108 -157 101 -101 138 -119 193 -96 31 13 60 50 63 81 6 53 -3 69 -82 151
-116 119 -141 134 -200 126z"/>
<path d="M1138 420 c-43 -33 -50 -66 -46 -215 l3 -137 33 -29 c45 -40 99 -40
144 0 l33 29 0 157 0 157 -33 29 c-39 35 -96 39 -134 9z"/>
</g>
</svg>
